<svg xmlns="http://www.w3.org/2000/svg" viewBox="0 0 1722 626" role="img" aria-label="tact">
  <style>
    path { fill: #000; }
    @media (prefers-color-scheme: dark) { path { fill: #fff; } }
  </style>
  <g transform="translate(0 615) scale(1 -1)">
    <path d="M332 124V181H307V126C307 52 277 14 240 14C173 14 173 105 173 122V400H316V431H173V615H148C147 533 117 426 19 422V400H104V124C104 1 197-11 233-11C304-11 332 60 332 124Z"/>
    <path d="M872 89V145H847V89C847 31 822 25 811 25C778 25 774 70 774 75V275C774 317 774 356 738 393C699 432 649 448 601 448C519 448 450 401 450 335C450 305 470 288 496 288C524 288 542 308 542 334C542 346 537 379 491 380C518 415 567 426 599 426C648 426 705 387 705 298V261C654 258 584 255 521 225C446 191 421 139 421 95C421 14 518-11 581-11C647-11 693 29 712 76C716 36 743-6 790-6C811-6 872 8 872 89ZM705 140C705 45 633 11 588 11C539 11 498 46 498 96C498 151 540 234 705 240Z"/>
    <path d="M1304 119C1304 129 1294 129 1291 129C1282 129 1280 125 1278 119C1249 26 1184 14 1147 14C1094 14 1006 57 1006 218C1006 381 1088 423 1141 423C1150 423 1213 422 1248 386C1207 383 1201 353 1201 340C1201 314 1219 294 1247 294C1273 294 1293 311 1293 341C1293 409 1217 448 1140 448C1015 448 923 340 923 216C923 88 1022-11 1138-11C1272-11 1304 109 1304 119Z"/>
    <path d="M1665 124V181H1640V126C1640 52 1610 14 1573 14C1506 14 1506 105 1506 122V400H1649V431H1506V615H1481C1480 533 1450 426 1352 422V400H1437V124C1437 1 1530-11 1566-11C1637-11 1665 60 1665 124Z"/>
  </g>
</svg>
